<svg width="20" height="21" viewBox="0 0 20 21" fill="none" xmlns="http://www.w3.org/2000/svg">
<g clip-path="url(#clip0_1_452)">
<path d="M9.16342 8.83334H9.1759M9.16651 13.8333H9.17899" stroke="#747474" stroke-width="2" stroke-linecap="round" stroke-linejoin="round"/>
<path d="M5.83334 11.3333H12.5" stroke="#747474" stroke-width="1.5" stroke-linecap="round" stroke-linejoin="round"/>
<circle cx="1.25" cy="1.25" r="1.25" transform="matrix(1 0 0 -1 13.3333 7.16687)" stroke="#747474" stroke-width="1.5" stroke-linecap="round" stroke-linejoin="round"/>
<path d="M2.31186 9.78663C1.47591 10.7203 1.45792 12.1289 2.22514 13.1197C3.7476 15.0861 5.41395 16.7524 7.38028 18.2749C8.37117 19.0421 9.77976 19.0241 10.7134 18.1882C13.2482 15.9185 15.5696 13.5466 17.8099 10.94C18.0314 10.6823 18.1699 10.3664 18.201 10.028C18.3385 8.53167 18.621 4.22058 17.4502 3.04981C16.2794 1.87903 11.9684 2.16149 10.472 2.29899C10.1336 2.33008 9.81775 2.46863 9.56005 2.69012C6.95344 4.9304 4.58151 7.25178 2.31186 9.78663Z" stroke="#747474" stroke-width="1.5"/>
</g>
<defs>
<clipPath id="clip0_1_452">
<rect width="20" height="20" fill="white" transform="translate(0 0.5)"/>
</clipPath>
</defs>
</svg>
