<svg width="12" height="12" viewBox="0 0 12 12" fill="none" xmlns="http://www.w3.org/2000/svg">
<rect x="0.25" y="0.25" width="11.5" height="11.5" rx="5.75" stroke="#323C43" stroke-width="0.5"/>
<path d="M10.001 4.31348C10.001 3.58943 9.5525 3.00034 9.00114 3.00034C8.57959 3.00034 8.21893 3.34518 8.07209 3.83094C6.94068 2.74927 5.16734 2.72065 4.00161 3.76523V3.41855C3.9952 3.18107 3.79751 2.99375 3.56003 3.00016C3.45056 3.00311 3.34631 3.04771 3.26859 3.12488C3.11093 2.99984 2.88759 3.00103 2.73125 3.12774C2.56075 2.96234 2.28843 2.96647 2.12304 3.13699C2.04797 3.21437 2.00469 3.31713 2.0018 3.42491L2.00215 4.61369C1.99057 4.77157 2.0259 4.92934 2.10372 5.06718C2.18169 5.20236 2.29586 5.31312 2.43335 5.38697C2.48127 5.41252 2.51555 5.45784 2.52709 5.51091C2.54793 5.59945 2.55514 5.69066 2.5485 5.78138C2.43285 7.17125 2.38898 8.142 2.42811 8.44478C2.43708 8.59058 2.49697 8.72861 2.59733 8.83474C2.82063 9.05161 3.17588 9.05163 3.39922 8.83481C3.5028 8.72864 3.56333 8.58783 3.56906 8.43962C3.58033 8.20976 3.57949 7.97948 3.56651 7.74973C4.53197 9.09498 6.40515 9.40285 7.7504 8.4374C8.03722 8.23155 8.28544 7.97666 8.4836 7.68449C8.46912 8.14004 8.46293 8.43631 8.46278 8.44388C8.4532 8.74123 8.68646 8.99005 8.98381 8.99964C9.28115 9.00922 9.52997 8.77596 9.53956 8.47861C9.53993 8.46704 9.53993 8.45545 9.53956 8.44388V8.4411C9.53927 8.42764 9.51236 7.07871 9.43201 5.6615C9.42684 5.57131 9.4648 5.48404 9.53427 5.42631C9.8454 5.14171 10.016 4.73491 10.001 4.31348ZM3.28461 8.41326C3.28427 8.49197 3.25538 8.56789 3.20327 8.6269C3.08989 8.7398 2.90657 8.73977 2.79322 8.62683C2.74332 8.56452 2.71466 8.48786 2.71141 8.4081C2.67529 8.1287 2.72082 7.15558 2.83318 5.80504C2.84197 5.68684 2.83304 5.56797 2.80669 5.45239C2.77808 5.3175 2.69172 5.20195 2.57046 5.1363C2.47936 5.08832 2.40371 5.01551 2.35228 4.92628C2.30104 4.83419 2.27847 4.72887 2.28749 4.62385V3.42489C2.29411 3.346 2.36344 3.28742 2.44233 3.29404C2.51202 3.2999 2.56732 3.3552 2.57317 3.42489V4.3049C2.57317 4.38378 2.63713 4.44774 2.71602 4.44774C2.7949 4.44774 2.85886 4.38378 2.85886 4.3049V3.44708C2.86734 3.3682 2.93817 3.31111 3.01708 3.31961C3.08427 3.32684 3.13733 3.37991 3.14455 3.44708V4.30491C3.14455 4.3838 3.20851 4.44776 3.28739 4.44776C3.36628 4.44776 3.43024 4.3838 3.43024 4.30491V3.41855C3.43686 3.33966 3.50619 3.28108 3.58508 3.2877C3.65477 3.29356 3.71007 3.34886 3.71592 3.41855L3.71612 4.11802C3.71616 4.11881 3.71607 4.11956 3.71612 4.12034L3.71626 4.6277C3.72385 4.72941 3.70119 4.8311 3.65113 4.91995C3.59972 5.00917 3.52407 5.082 3.43295 5.12996C3.31173 5.19556 3.2254 5.31103 3.19678 5.44584C3.17488 5.56308 3.16615 5.68239 3.17076 5.80156C3.27059 7.30917 3.30777 8.16343 3.28461 8.41326ZM6.00142 8.71409C4.94415 8.7125 3.98356 8.09842 3.5383 7.13947C3.51858 6.76722 3.4913 6.31798 3.45591 5.78272C3.45298 5.68948 3.45986 5.59617 3.47641 5.50435C3.48794 5.45138 3.52217 5.40613 3.57001 5.38062C3.70755 5.3068 3.82173 5.19604 3.89971 5.06082C3.97631 4.92619 4.01173 4.77207 4.00161 4.61751V4.16851C5.00905 3.06415 6.72102 2.98561 7.82536 3.99305C7.88873 4.05085 7.9493 4.11163 8.0069 4.17519C8.00325 4.22067 8.00124 4.26676 8.00124 4.31348C7.98622 4.73502 8.15695 5.14192 8.46826 5.42652C8.53767 5.48421 8.57561 5.5714 8.57052 5.6615C8.54324 6.14947 8.52215 6.62655 8.50605 7.04544C8.08641 8.05778 7.09729 8.71675 6.00142 8.71409ZM9.35261 5.20585C9.21298 5.32157 9.13656 5.49669 9.1467 5.67777C9.22552 7.06812 9.25278 8.39278 9.25383 8.44515C9.26257 8.58469 9.15652 8.70488 9.017 8.71361C8.87748 8.72234 8.75727 8.6163 8.74854 8.47677C8.74792 8.46681 8.74788 8.45681 8.74844 8.44683C8.74865 8.43344 8.77647 7.09519 8.85578 5.67734C8.86573 5.49646 8.78934 5.3216 8.64989 5.20599C8.40623 4.97449 8.274 4.64933 8.28692 4.3135C8.28692 3.74695 8.60734 3.28604 9.00114 3.28604C9.39495 3.28604 9.71536 3.74693 9.71536 4.3135C9.72829 4.64924 9.59614 4.97433 9.35261 5.20585Z" fill="#323C43"/>
<path d="M6.00144 7.42894C5.21253 7.42894 4.573 6.78941 4.573 6.00051C4.573 5.2116 5.21253 4.57207 6.00144 4.57207C6.79034 4.57207 7.42987 5.2116 7.42987 6.00051C7.429 6.78906 6.78999 7.42807 6.00144 7.42894ZM6.00144 4.85775C5.37032 4.85775 4.85869 5.36939 4.85869 6.00051C4.85869 6.63162 5.37032 7.14326 6.00144 7.14326C6.63256 7.14326 7.14419 6.63162 7.14419 6.00051C7.14347 5.36969 6.63227 4.85849 6.00144 4.85775Z" fill="#323C43"/>
</svg>
