<svg width="14" height="12" viewBox="0 0 14 12" fill="none" xmlns="http://www.w3.org/2000/svg">
<mask id="path-1-inside-1_1_410" fill="white">
<path d="M6.59953 12C6.20335 12 5.80717 11.843 5.50558 11.5289L1.15066 6.99391C-0.383758 5.39605 -0.383758 2.79616 1.15066 1.19833C2.64678 -0.359642 5.05782 -0.39841 6.59959 1.08178C8.14146 -0.397282 10.5514 -0.357978 12.0472 1.19959C12.7905 1.97362 13.1998 3.00275 13.1998 4.09737C13.1998 5.19195 12.7904 6.22114 12.0472 6.99515L7.69351 11.5289C7.3919 11.843 6.99572 12 6.59953 12ZM3.93342 1.07206C3.15774 1.07206 2.42849 1.38661 1.87999 1.95778C1.33149 2.52895 1.02942 3.28838 1.02942 4.09613C1.02942 4.90388 1.33147 5.66328 1.87997 6.23446L6.23488 10.7694C6.43595 10.9788 6.76312 10.9788 6.96418 10.7694L11.3179 6.23572C11.8664 5.66455 12.1685 4.90515 12.1685 4.09739C12.1685 3.28964 11.8664 2.53024 11.3179 1.95907C10.1856 0.779994 8.34333 0.779994 7.21104 1.95907L6.96418 2.21613C6.76278 2.42589 6.43626 2.42586 6.23486 2.21613L5.98682 1.95783C5.43835 1.38663 4.7091 1.07206 3.93342 1.07206Z"/>
</mask>
<path d="M5.50558 11.5289L6.37116 10.6978L6.37112 10.6977L5.50558 11.5289ZM1.15066 6.99391L0.285128 7.82508L1.15066 6.99391ZM1.15066 1.19833L2.01619 2.02951L2.0162 2.0295L1.15066 1.19833ZM6.59959 1.08178L5.76852 1.94742L6.59924 2.74496L7.43029 1.94777L6.59959 1.08178ZM12.0472 1.19959L12.9128 0.368432L12.9127 0.368402L12.0472 1.19959ZM12.0472 6.99515L12.9128 7.82632L12.9128 7.82627L12.0472 6.99515ZM7.69351 11.5289L8.55905 12.3601L8.55905 12.3601L7.69351 11.5289ZM6.96418 10.7694L6.09865 9.93826L6.09865 9.93826L6.96418 10.7694ZM11.3179 6.23572L12.1835 7.06689L12.1835 7.06687L11.3179 6.23572ZM11.3179 1.95907L10.4524 2.79024L10.4524 2.79026L11.3179 1.95907ZM7.21104 1.95907L6.34551 1.12789L6.3455 1.1279L7.21104 1.95907ZM6.96418 2.21613L6.09865 1.38496L6.0986 1.38501L6.96418 2.21613ZM5.98682 1.95783L5.12124 2.78897L5.12128 2.78901L5.98682 1.95783ZM6.59953 10.8C6.52322 10.8 6.44177 10.7713 6.37116 10.6978L4.64001 12.36C5.17258 12.9147 5.88349 13.2 6.59953 13.2V10.8ZM6.37112 10.6977L2.0162 6.16274L0.285128 7.82508L4.64005 12.3601L6.37112 10.6977ZM2.0162 6.16274C0.927726 5.02926 0.927736 3.16295 2.01619 2.02951L0.285135 0.367148C-1.69525 2.42938 -1.69524 5.76283 0.285128 7.82508L2.0162 6.16274ZM2.0162 2.0295C3.05244 0.950417 4.70388 0.925304 5.76852 1.94742L7.43065 0.216145C5.41175 -1.72212 2.24111 -1.6697 0.285128 0.367155L2.0162 2.0295ZM7.43029 1.94777C8.49493 0.926495 10.1456 0.951883 11.1817 2.03078L12.9127 0.368402C10.9573 -1.66784 7.78799 -1.72106 5.76888 0.215801L7.43029 1.94777ZM11.1817 2.03075C11.7056 2.57636 11.9998 3.30568 11.9998 4.09737H14.3998C14.3998 2.69983 13.8754 1.37089 12.9128 0.368432L11.1817 2.03075ZM11.9998 4.09737C11.9998 4.88899 11.7055 5.6184 11.1816 6.16402L12.9128 7.82627C13.8753 6.82389 14.3998 5.49492 14.3998 4.09737H11.9998ZM11.1817 6.16398L6.82797 10.6977L8.55905 12.3601L12.9128 7.82632L11.1817 6.16398ZM6.82797 10.6977C6.75731 10.7713 6.67584 10.8 6.59953 10.8V13.2C7.31559 13.2 8.02648 12.9146 8.55905 12.3601L6.82797 10.6977ZM3.93342 -0.127935C2.82344 -0.127935 1.78391 0.325344 1.01445 1.12661L2.74553 2.78895C3.07307 2.44787 3.49203 2.27206 3.93342 2.27206V-0.127935ZM1.01445 1.12661C0.246602 1.92621 -0.170584 2.98545 -0.170584 4.09613H2.22942C2.22942 3.59131 2.41639 3.1317 2.74553 2.78895L1.01445 1.12661ZM-0.170584 4.09613C-0.170584 5.2068 0.246566 6.26602 1.01443 7.06563L2.7455 5.40329C2.41637 5.06055 2.22942 4.60097 2.22942 4.09613H-0.170584ZM1.01443 7.06563L5.36935 11.6006L7.10042 9.93826L2.7455 5.40329L1.01443 7.06563ZM5.36935 11.6006C6.04266 12.3018 7.15641 12.3018 7.82972 11.6006L6.09865 9.93826C6.36983 9.65587 6.82924 9.65587 7.10042 9.93826L5.36935 11.6006ZM7.82972 11.6006L12.1835 7.06689L10.4524 5.40455L6.09865 9.93826L7.82972 11.6006ZM12.1835 7.06687C12.9513 6.26729 13.3685 5.20809 13.3685 4.09739H10.9685C10.9685 4.60221 10.7815 5.0618 10.4524 5.40457L12.1835 7.06687ZM13.3685 4.09739C13.3685 2.98672 12.9513 1.92749 12.1834 1.12788L10.4524 2.79026C10.7815 3.13299 10.9685 3.59256 10.9685 4.09739H13.3685ZM12.1834 1.1279C10.5789 -0.542954 7.95004 -0.54294 6.34551 1.12789L8.07657 2.79025C8.73662 2.10293 9.79235 2.10294 10.4524 2.79024L12.1834 1.1279ZM6.3455 1.1279L6.09865 1.38496L7.82972 3.0473L8.07658 2.79024L6.3455 1.1279ZM6.0986 1.38501C6.36952 1.10285 6.82962 1.10299 7.1004 1.38496L5.36932 3.0473C6.0429 3.74873 7.15604 3.74892 7.82977 3.04725L6.0986 1.38501ZM7.1004 1.38496L6.85235 1.12666L5.12128 2.78901L5.36932 3.0473L7.1004 1.38496ZM6.85239 1.1267C6.08297 0.325393 5.04342 -0.127935 3.93342 -0.127935V2.27206C4.37477 2.27206 4.79372 2.44787 5.12124 2.78897L6.85239 1.1267Z" fill="white" mask="url(#path-1-inside-1_1_410)"/>
</svg>
