<svg width="37" height="36" viewBox="0 0 37 36" fill="none" xmlns="http://www.w3.org/2000/svg">
<g clip-path="url(#clip0_1_475)">
<path d="M2.78534 32.5581C2.72719 32.5581 2.66904 32.5581 2.64011 32.5288C2.49487 32.4999 2.34964 32.3836 2.29149 32.2384L0.693907 29.2755C0.548672 28.9851 0.635756 28.6367 0.926225 28.4915L1.885 27.9684L1.36193 26.8647C1.24591 26.6034 1.33299 26.2838 1.56531 26.1385L2.61117 25.4705L2.05917 24.3086C1.94287 24.0471 2.03023 23.7277 2.26255 23.5824L3.33734 22.8563L2.78534 21.6362C2.72719 21.5202 2.72719 21.375 2.75641 21.2587L3.86013 17.0469C2.11732 15.4493 1.42008 12.9222 2.0881 10.5113C2.55302 8.85562 3.62781 7.46142 5.13802 6.61895C6.64852 5.77676 8.3624 5.57337 10.0471 6.03801C13.4745 6.99679 15.4789 10.5695 14.4912 13.997C13.8232 16.437 11.8188 18.3829 9.55321 18.8479L6.24203 30.4085C6.21282 30.5537 6.0968 30.67 5.9805 30.7571L3.07581 32.4417C2.98872 32.5288 2.87242 32.5581 2.78534 32.5581ZM1.97208 29.2466L3.01766 31.1636L5.19618 29.8857L8.53657 18.2088C8.59472 17.9765 8.7981 17.8312 9.00149 17.802C10.9766 17.5408 12.7484 15.8561 13.3585 13.7065C14.1426 10.8889 12.516 7.98421 9.69844 7.19989C8.33318 6.82233 6.91006 6.99679 5.69003 7.66481C4.47 8.36176 3.56966 9.49471 3.19211 10.8307C2.61117 12.8932 3.27919 15.0718 4.87677 16.3789C5.05094 16.5241 5.13803 16.7564 5.08016 16.9887L3.94722 21.3458L4.61524 22.8273C4.73154 23.0886 4.64445 23.3791 4.41185 23.5535L3.33734 24.2505L3.88907 25.3834C4.00537 25.6447 3.91828 25.9643 3.68568 26.1096L2.64011 26.7776L3.19211 27.9105C3.33734 28.201 3.22104 28.5204 2.95951 28.6657L1.97208 29.2466Z" fill="white"/>
<path d="M8.85628 12.2252C8.68182 12.2252 8.47844 12.196 8.30427 12.1379C7.78148 11.9926 7.34578 11.6443 7.05531 11.1794C6.79378 10.7147 6.73563 10.1627 6.88086 9.63994C7.20055 8.56514 8.3332 7.92606 9.408 8.21652C9.93078 8.36176 10.3665 8.71038 10.657 9.1753C10.9185 9.63994 10.9766 10.1919 10.8314 10.7147C10.5699 11.6443 9.75662 12.2252 8.85628 12.2252ZM8.85628 9.32053C8.47844 9.32053 8.10089 9.58179 8.0138 9.95934C7.95565 10.1919 7.98487 10.4243 8.10089 10.6276C8.21719 10.8307 8.42057 10.976 8.62367 11.0341C9.08859 11.1794 9.58245 10.8889 9.72768 10.4243C9.78555 10.1919 9.75662 9.95934 9.64032 9.75624C9.5243 9.55285 9.32091 9.40762 9.11753 9.34947C9.00151 9.32053 8.94336 9.32053 8.85628 9.32053Z" fill="white"/>
<path d="M13.8521 14.665C12.6032 14.665 11.4413 14.2585 10.4539 13.5031C10.1923 13.2997 10.1634 12.9514 10.3376 12.6899C10.5409 12.4283 10.8896 12.3994 11.1508 12.5736C11.9351 13.1837 12.8647 13.4742 13.8521 13.4742C14.6364 13.4742 15.4208 13.2708 16.0888 12.864C16.3793 12.6899 16.7279 12.8062 16.8731 13.0674C17.0473 13.3579 16.9313 13.7065 16.6697 13.8517C15.8275 14.4038 14.8398 14.665 13.8521 14.665Z" fill="white"/>
<path d="M8.88521 9.32055H8.85628C8.53659 9.29133 8.30428 9.03008 8.30428 8.71039C8.50766 5.8057 10.9474 3.5401 13.8521 3.5401C16.4374 3.5401 18.7322 5.37 19.2839 7.92607C19.3421 8.24575 19.1679 8.53622 18.8482 8.62331C18.5288 8.68146 18.2384 8.50701 18.1513 8.1876C17.7156 6.12539 15.9146 4.67304 13.8521 4.67304C11.5576 4.67304 9.61139 6.47372 9.46615 8.76854C9.43722 9.05901 9.17568 9.32055 8.88521 9.32055Z" fill="white"/>
<path d="M27.5042 28.2589C27.3589 28.2589 27.2137 28.201 27.0977 28.0847L17.2217 18.2088C16.9894 17.9765 16.4663 17.3663 16.4663 16.6401L15.8565 10.2209C15.8565 10.1919 15.8565 10.1919 15.8565 10.1627C15.8565 9.3784 16.0888 8.79747 16.6116 8.24575C17.1346 7.72296 17.7156 7.49036 18.3836 7.49036H18.5288H18.587L25.0062 8.07129C25.7613 8.07129 26.3423 8.6233 26.5749 8.82668L36.4508 18.7026C36.6831 18.9349 36.6831 19.2836 36.4508 19.5159L27.9109 28.0847C27.8238 28.201 27.6786 28.2589 27.5042 28.2589ZM17.0183 10.1338L17.6282 16.553V16.6112C17.6282 16.8435 17.8027 17.134 18.0639 17.3955L27.5334 26.8647L35.2308 19.1383L25.7613 9.66887C25.5001 9.40762 25.1804 9.23317 24.9773 9.23317C24.9481 9.23317 24.9481 9.23317 24.9192 9.23317L18.3836 8.6233C18.035 8.6233 17.7445 8.76853 17.454 9.059C17.1346 9.3784 17.0183 9.66887 17.0183 10.1338Z" fill="white"/>
<path d="M23.1182 18.0635C22.973 18.0635 22.8277 18.0054 22.7114 17.8894C22.4791 17.6568 22.4791 17.3084 22.7114 17.0758L25.529 14.2585C25.7613 14.0259 26.11 14.0259 26.3423 14.2585C26.5749 14.4908 26.5749 14.8395 26.3423 15.0718L23.525 17.8894C23.4087 18.0054 23.2634 18.0635 23.1182 18.0635Z" fill="white"/>
<path d="M26.4004 21.3458C26.2552 21.3458 26.11 21.2876 25.9939 21.1716C25.7613 20.9393 25.7613 20.5907 25.9939 20.3584L28.8113 17.5408C29.0439 17.3084 29.3922 17.3084 29.6248 17.5408C29.8571 17.7731 29.8571 18.1217 29.6248 18.354L26.8072 21.1716C26.6909 21.2876 26.5457 21.3458 26.4004 21.3458Z" fill="white"/>
</g>
<defs>
<clipPath id="clip0_1_475">
<rect width="36" height="36" fill="white" transform="translate(0.625)"/>
</clipPath>
</defs>
</svg>
