<svg width="37" height="36" viewBox="0 0 37 36" fill="none" xmlns="http://www.w3.org/2000/svg">
<path d="M13.7087 29.999C13.6707 29.999 13.6337 29.998 13.5957 29.995C13.1597 29.962 12.7607 29.74 12.5007 29.387L10.3597 26.456C10.2807 26.353 10.2057 26.277 10.1227 26.218L6.98667 23.904C6.63867 23.654 6.41467 23.26 6.37767 22.83C6.33967 22.392 6.49567 21.96 6.80667 21.642C7.26867 21.18 7.97067 21.051 8.55967 21.315L11.1087 22.43L16.0667 17.081C16.2307 16.907 16.2317 16.713 16.2177 16.613C16.1937 16.44 16.0947 16.289 15.9457 16.199L7.61067 11.782C7.16667 11.517 6.89267 11.092 6.83567 10.605C6.77767 10.12 6.94567 9.64495 7.29467 9.30295C7.62667 8.97195 8.11067 8.83395 8.55667 8.94595L20.7087 11.511C20.9067 11.554 21.1127 11.491 21.2557 11.343L25.6117 6.71795C26.0427 6.26095 26.7837 5.99995 27.6447 5.99995C28.4947 5.99995 29.2357 6.25395 29.6787 6.69595C30.1297 7.14695 30.3897 7.93595 30.3747 8.80595C30.3597 9.63895 30.0987 10.353 29.6567 10.766L26.0687 14.154C25.8677 14.344 25.5507 14.334 25.3617 14.134C25.1717 13.933 25.1807 13.617 25.3817 13.427L28.9717 10.037C29.2077 9.81595 29.3647 9.32695 29.3747 8.78795C29.3847 8.20195 29.2267 7.65795 28.9717 7.40295C28.7267 7.15795 28.2057 6.99995 27.6447 6.99995C27.0747 6.99995 26.5737 7.15495 26.3377 7.40395L21.9787 12.033C21.5887 12.436 21.0377 12.605 20.4987 12.489L8.33167 9.91895C8.20767 9.88795 8.08667 9.92695 7.99867 10.014C7.86867 10.141 7.80867 10.313 7.82967 10.489C7.85067 10.666 7.94967 10.82 8.10267 10.912L16.4387 15.329C16.8727 15.59 17.1447 16.003 17.2097 16.477C17.2737 16.948 17.1247 17.416 16.7987 17.763L11.6017 23.37C11.4567 23.527 11.2297 23.573 11.0347 23.488L8.15467 22.228C7.94067 22.131 7.68167 22.181 7.51867 22.344C7.41567 22.449 7.36167 22.595 7.37467 22.742C7.38767 22.885 7.45867 23.01 7.57667 23.095L10.7117 25.408C10.8697 25.521 11.0147 25.664 11.1617 25.856L13.3087 28.795C13.3947 28.912 13.5277 28.986 13.6727 28.997C13.8137 29.008 13.9497 28.958 14.0517 28.856C14.2217 28.691 14.2687 28.436 14.1757 28.215L12.9167 25.34C12.8317 25.145 12.8787 24.918 13.0347 24.774L15.5447 22.444C15.7457 22.256 16.0637 22.267 16.2517 22.47C16.4397 22.673 16.4277 22.989 16.2257 23.177L13.9757 25.266L15.0927 27.821C15.3497 28.424 15.2127 29.125 14.7527 29.571C14.4787 29.844 14.1017 29.999 13.7087 29.999Z" fill="#191919"/>
<path d="M24.3746 30C24.3086 30 24.2426 29.987 24.1806 29.96C23.9426 29.861 18.3746 27.454 18.3746 22.536V18.357C18.3746 18.143 18.5116 17.952 18.7146 17.883L24.2146 16.026C24.3186 15.991 24.4306 15.991 24.5346 16.026L30.0346 17.883C30.2376 17.951 30.3746 18.142 30.3746 18.357V22.536C30.3746 27.454 24.8066 29.861 24.5686 29.961C24.5066 29.987 24.4406 30 24.3746 30ZM19.3746 18.716V22.536C19.3746 26.321 23.4296 28.494 24.3746 28.95C25.3186 28.493 29.3746 26.312 29.3746 22.536V18.716L24.3746 17.028L19.3746 18.716Z" fill="#1F1F1F"/>
<path d="M23.8747 25.0001C23.8657 25.0001 23.8557 25.0001 23.8467 24.9991C23.7047 24.9911 23.5727 24.9231 23.4837 24.8121L21.4837 22.3121C21.3117 22.0961 21.3467 21.7821 21.5617 21.6091C21.7777 21.4371 22.0927 21.4721 22.2647 21.6871L23.9157 23.7511L27.0207 20.6461C27.2157 20.4511 27.5327 20.4511 27.7277 20.6461C27.9227 20.8411 27.9227 21.1581 27.7277 21.3531L24.2277 24.8531C24.1347 24.9481 24.0067 25.0001 23.8747 25.0001Z" fill="#1F1F1F"/>
</svg>
