<svg width="12" height="12" viewBox="0 0 12 12" fill="none" xmlns="http://www.w3.org/2000/svg">
<path d="M10.772 5.52249C10.924 5.73565 11 5.84223 11 6C11 6.15777 10.924 6.26435 10.772 6.47751C10.089 7.43528 8.34461 9.5 6 9.5C3.65539 9.5 1.91105 7.43528 1.22802 6.47751C1.07601 6.26435 1 6.15777 1 6C1 5.84223 1.07601 5.73565 1.22802 5.52249C1.91105 4.56472 3.65539 2.5 6 2.5C8.34461 2.5 10.089 4.56472 10.772 5.52249Z" stroke="#141B34" stroke-width="0.8"/>
<path d="M7.5 6C7.5 5.17157 6.82843 4.5 6 4.5C5.17157 4.5 4.5 5.17157 4.5 6C4.5 6.82843 5.17157 7.5 6 7.5C6.82843 7.5 7.5 6.82843 7.5 6Z" stroke="#141B34" stroke-width="0.8"/>
</svg>
