<svg width="12" height="12" viewBox="0 0 12 12" fill="none" xmlns="http://www.w3.org/2000/svg">
<rect x="0.25" y="0.25" width="11.5" height="11.5" rx="5.75" stroke="#323C43" stroke-width="0.5"/>
<path d="M8.42857 5.07143H5.21429C5.11607 5.07143 5.03571 5.15179 5.03571 5.25V6.67857H2.89286V4.17857C2.89286 4.08036 2.8125 4 2.71429 4H2.17857C2.08036 4 2 4.08036 2 4.17857V8.82143C2 8.91964 2.08036 9 2.17857 9H2.71429C2.8125 9 2.89286 8.91964 2.89286 8.82143V7.92857H8.60714V8.82143C8.60714 8.91964 8.6875 9 8.78571 9H9.32143C9.41964 9 9.5 8.91964 9.5 8.82143V6.14286C9.5 5.55179 9.01964 5.07143 8.42857 5.07143ZM5.03571 7.57143H2.71429C2.61607 7.57143 2.53571 7.65179 2.53571 7.75V8.64286H2.35714V4.35714H2.53571V6.85714C2.53571 6.95536 2.61607 7.03571 2.71429 7.03571H5.03571V7.57143ZM9.14286 8.64286H8.96428V7.75C8.96428 7.65179 8.88393 7.57143 8.78571 7.57143H5.39286V5.42857H8.42857C8.82321 5.42857 9.14286 5.74821 9.14286 6.14286V8.64286Z" fill="#323C43"/>
<path d="M3.07141 5.60672C3.07141 6.09958 3.47141 6.49958 3.96427 6.49958C4.45713 6.49958 4.85713 6.09958 4.85713 5.60672C4.85713 5.11387 4.45713 4.71387 3.96427 4.71387C3.47141 4.71387 3.07141 5.11387 3.07141 5.60672ZM4.49998 5.60672C4.49998 5.90137 4.25891 6.14244 3.96427 6.14244C3.66963 6.14244 3.42855 5.90137 3.42855 5.60672C3.42855 5.31208 3.66963 5.07101 3.96427 5.07101C4.25891 5.07101 4.49998 5.31208 4.49998 5.60672Z" fill="#323C43"/>
</svg>
