<svg width="12" height="12" viewBox="0 0 12 12" fill="none" xmlns="http://www.w3.org/2000/svg">
<rect x="0.25" y="0.25" width="11.5" height="11.5" rx="5.75" stroke="#323C43" stroke-width="0.5"/>
<path d="M8.80038 3.93478C8.68061 3.77536 8.51521 3.68116 8.327 3.68116H7.38023V3.66667C7.38023 3.48551 7.32319 3.31159 7.22624 3.19565C7.12928 3.07246 6.9981 3 6.85551 3H5.14449C4.9962 3 4.86502 3.07246 4.76806 3.19565C4.6711 3.31884 4.61407 3.48551 4.61407 3.66667V3.68116H3.673C3.48479 3.68116 3.31939 3.77536 3.19962 3.93478C3.07985 4.08696 3 4.30435 3 4.53623V8.14493C3 8.38406 3.07414 8.5942 3.19962 8.74638C3.31939 8.89855 3.49049 9 3.673 9H8.327C8.51521 9 8.68061 8.9058 8.80038 8.74638C8.92015 8.5942 9 8.37681 9 8.14493V4.53623C9 4.2971 8.92586 4.08696 8.80038 3.93478ZM8.70342 8.14493H8.69772C8.69772 8.27536 8.65779 8.3913 8.58935 8.47826C8.52091 8.56522 8.42966 8.61594 8.327 8.61594H3.673C3.57034 8.61594 3.47909 8.56522 3.41065 8.47826C3.34221 8.3913 3.30228 8.27536 3.30228 8.14493V4.53623C3.30228 4.4058 3.34221 4.28985 3.41065 4.2029C3.47909 4.11594 3.57034 4.06522 3.673 4.06522H4.77376C4.85932 4.06522 4.92776 3.97826 4.92776 3.86957V3.65942C4.92776 3.57971 4.95057 3.50725 4.99049 3.45652C5.03042 3.4058 5.08745 3.37681 5.15019 3.37681H6.85551C6.91825 3.37681 6.97529 3.4058 7.01521 3.45652C7.05513 3.50725 7.07795 3.57971 7.07795 3.65942V3.86957C7.07795 3.97826 7.14639 4.06522 7.23194 4.06522H8.3327C8.43536 4.06522 8.52662 4.11594 8.59506 4.2029C8.6635 4.28985 8.70342 4.4058 8.70342 4.53623V8.14493Z" fill="#323C43"/>
<path d="M6.00003 4.55811C5.61219 4.55811 5.25858 4.761 5.00763 5.07984C4.75098 5.40593 4.59698 5.84796 4.59698 6.34071C4.59698 6.83347 4.75668 7.28274 5.00763 7.60158C5.26429 7.92767 5.61219 8.12332 6.00003 8.12332C6.38786 8.12332 6.74147 7.92042 6.99242 7.60158C7.24908 7.2755 7.40307 6.83347 7.40307 6.34071C7.40307 5.84796 7.24337 5.39869 6.99242 5.07984C6.74147 4.761 6.38786 4.55811 6.00003 4.55811ZM6.77569 7.33347C6.57607 7.57984 6.30231 7.73926 6.00003 7.73926C5.69775 7.73926 5.42398 7.57984 5.22436 7.33347C5.02474 7.07984 4.90497 6.73202 4.90497 6.34796C4.90497 5.9639 5.03044 5.61608 5.22436 5.36245C5.42398 5.10883 5.69775 4.95666 6.00003 4.95666C6.30231 4.95666 6.57607 5.11608 6.77569 5.36245C6.97531 5.61608 7.09508 5.9639 7.09508 6.34796C7.10079 6.73202 6.97531 7.07984 6.77569 7.33347Z" fill="#323C43"/>
<path d="M8.03044 5.26044C8.18479 5.26044 8.30991 5.10147 8.30991 4.90537C8.30991 4.70926 8.18479 4.55029 8.03044 4.55029C7.8761 4.55029 7.75098 4.70926 7.75098 4.90537C7.75098 5.10147 7.8761 5.26044 8.03044 5.26044Z" fill="#323C43"/>
</svg>
