<svg width="12" height="12" viewBox="0 0 12 12" fill="none" xmlns="http://www.w3.org/2000/svg">
<rect x="0.25" y="0.25" width="11.5" height="11.5" rx="5.75" stroke="#323C43" stroke-width="0.5"/>
<path d="M6.98438 7.64062C6.91969 7.64062 6.86719 7.69313 6.86719 7.75781C6.86719 7.8225 6.91969 7.875 6.98438 7.875C7.04906 7.875 7.10156 7.8225 7.10156 7.75781C7.10156 7.69313 7.04906 7.64062 6.98438 7.64062Z" fill="#323C43"/>
<path d="M7.27291 7.26168L6.71592 7.07605L6.51596 6.67613C6.69611 6.49277 6.82118 6.25017 6.86336 5.99713L6.88829 5.84766H7.10156C7.29541 5.84766 7.45312 5.68995 7.45312 5.49609V4.75781C7.45312 3.78855 6.66457 3 5.69531 3C4.72357 3 3.9375 3.78629 3.9375 4.75781V5.49609C3.9375 5.64886 4.03548 5.77912 4.17188 5.8275V5.96484C4.17188 6.1587 4.32959 6.31641 4.52344 6.31641H4.62635C4.67715 6.42676 4.74291 6.52897 4.82292 6.62079C4.83952 6.63987 4.85682 6.65836 4.87455 6.67635L4.6747 7.07605L4.1177 7.26169C3.47006 7.47764 3 8.15943 3 8.88281C3 8.94754 3.05246 9 3.11719 9H8.27344C8.33815 9 8.39062 8.94754 8.39062 8.88281C8.39062 8.15943 7.92057 7.47764 7.27291 7.26168ZM7.21875 5.49609C7.21875 5.56071 7.16618 5.61328 7.10156 5.61328H6.92271C6.9525 5.38254 6.97235 5.137 6.98033 4.89516C6.98057 4.88834 6.98075 4.8817 6.98097 4.875H7.21875V5.49609ZM4.28906 5.61328C4.22445 5.61328 4.17188 5.56071 4.17188 5.49609V4.875H4.40974C4.41013 4.88722 4.41054 4.8995 4.411 4.91187C4.41101 4.91229 4.41103 4.9127 4.41104 4.91312C4.41104 4.91316 4.41104 4.91319 4.41104 4.91323C4.41925 5.14845 4.43884 5.38761 4.46795 5.61327H4.28906V5.61328ZM4.52344 6.08203C4.45882 6.08203 4.40625 6.02946 4.40625 5.96484V5.84766H4.50232L4.52726 5.99718C4.53202 6.02559 4.53786 6.05391 4.54463 6.08203H4.52344ZM4.40645 4.64062H4.17633C4.23568 3.85522 4.89114 3.23438 5.69531 3.23438C6.49591 3.23438 7.15425 3.85514 7.21428 4.64062H6.98419C6.97575 3.99343 6.44872 3.46875 5.80021 3.46875H5.59044C4.94194 3.46875 4.41488 3.99343 4.40645 4.64062ZM5.59043 3.70312H5.8002C6.3253 3.70312 6.7503 4.13263 6.75 4.65715C6.75 4.69403 6.74971 4.72614 6.74909 4.75535C6.74909 4.75573 6.74907 4.75611 6.74907 4.7565L6.6025 4.73556C6.20429 4.6787 5.82831 4.49071 5.5438 4.2062C5.52182 4.18423 5.49202 4.17188 5.46094 4.17188C5.14622 4.17188 4.84495 4.31527 4.6458 4.55752C4.69488 4.08034 5.09828 3.70312 5.59043 3.70312ZM4.78758 6.08203C4.72891 5.88688 4.66179 5.31266 4.64695 4.94469L4.80468 4.73439C4.94953 4.54131 5.17489 4.42134 5.41463 4.40757C5.73006 4.70776 6.13813 4.906 6.56936 4.96757L6.74188 4.99222C6.73035 5.23697 6.70678 5.48257 6.67302 5.70845C6.67301 5.70852 6.673 5.7086 6.67298 5.70868C6.66225 5.7813 6.65379 5.82804 6.63218 5.95857C6.57012 6.33082 6.29236 6.66744 5.92569 6.75912C5.77479 6.79679 5.61581 6.79678 5.46499 6.75912C5.23604 6.70188 5.02611 6.54347 4.89063 6.31641H5.12953C5.17791 6.4528 5.30816 6.55078 5.46094 6.55078H5.69531C5.88955 6.55078 6.04688 6.39347 6.04688 6.19922C6.04688 6.00537 5.88916 5.84766 5.69531 5.84766H5.46094C5.30476 5.84766 5.17643 5.94853 5.12933 6.08203H4.78758ZM5.45108 6.99628C5.53146 7.01321 5.61341 7.02188 5.69531 7.02188C5.75943 7.02188 5.82355 7.01651 5.88695 7.0061L5.67988 7.22509L5.45108 6.99628ZM5.51877 7.39546L5.14707 7.78853C5.04475 7.59266 4.95682 7.38881 4.8847 7.18013L5.02429 6.90096L5.51877 7.39546ZM6.34648 6.86126L6.5059 7.18011C6.43366 7.38915 6.34572 7.59307 6.24349 7.7887L5.84566 7.39087L6.34648 6.86126ZM5.34375 6.19922C5.34375 6.13452 5.39623 6.08203 5.46094 6.08203H5.69531C5.75993 6.08203 5.8125 6.1346 5.8125 6.19922C5.8125 6.26393 5.76001 6.31641 5.69531 6.31641H5.46094C5.39632 6.31641 5.34375 6.26384 5.34375 6.19922ZM3.23906 8.76562C3.2855 8.18509 3.67186 7.65742 4.19182 7.48403L4.68511 7.31964C4.77548 7.56954 4.88745 7.81243 5.01866 8.04315C5.01888 8.04355 5.01909 8.04395 5.01932 8.04434L5.01933 8.04436C5.1152 8.21298 5.22311 8.37776 5.34009 8.53419L5.48426 8.76562H3.23906ZM5.69531 8.66116L5.53638 8.40601C5.5346 8.40315 5.5327 8.40037 5.53069 8.39768C5.43579 8.27109 5.34727 8.13871 5.26664 8.0032L5.68457 7.56124L6.12493 8.00161C6.04377 8.1381 5.95494 8.27104 5.85996 8.39766C5.85422 8.40531 5.86236 8.39325 5.69531 8.66116ZM5.90637 8.76562L6.05052 8.5342C6.16802 8.37717 6.2767 8.21107 6.37354 8.04047C6.37412 8.03944 6.37467 8.03838 6.37526 8.03735C6.37533 8.03722 6.3754 8.03711 6.37547 8.03698C6.50502 7.80846 6.61581 7.56768 6.70552 7.31964L7.19879 7.48403C7.71877 7.65742 8.10512 8.18509 8.15156 8.76562H5.90637Z" fill="#323C43"/>
<path d="M7.79938 8.29118C7.72107 8.13442 7.60635 7.99515 7.46764 7.88844C7.41633 7.84896 7.34276 7.85856 7.30331 7.90986C7.26384 7.96117 7.27343 8.03474 7.32473 8.07421C7.43552 8.15944 7.52713 8.27069 7.5897 8.39592C7.61868 8.45392 7.68911 8.47726 7.74691 8.44839C7.8048 8.41947 7.82829 8.34908 7.79938 8.29118Z" fill="#323C43"/>
</svg>
