<svg width="37" height="36" viewBox="0 0 37 36" fill="none" xmlns="http://www.w3.org/2000/svg">
<path d="M25.4982 31H10.7519C10.649 31 10.5503 30.9591 10.4775 30.8863C10.4047 30.8136 10.3638 30.7149 10.3638 30.6119V7.32837C10.3638 7.22545 10.4047 7.12674 10.4775 7.05397C10.5503 6.98119 10.649 6.94031 10.7519 6.94031H25.4982C25.6011 6.94031 25.6998 6.98119 25.7726 7.05397C25.8453 7.12674 25.8862 7.22545 25.8862 7.32837V30.6119C25.8862 30.7149 25.8453 30.8136 25.7726 30.8863C25.6998 30.9591 25.6011 31 25.4982 31ZM11.1399 30.2239H25.1101V7.71643H11.1399V30.2239Z" fill="#1F1F1F"/>
<path d="M22.3938 7.71648H13.8565C13.7536 7.71648 13.6549 7.67559 13.5821 7.60282C13.5094 7.53004 13.4685 7.43134 13.4685 7.32842V5.38812C13.4685 5.2852 13.5094 5.1865 13.5821 5.11372C13.6549 5.04095 13.7536 5.00006 13.8565 5.00006H22.3938C22.4968 5.00006 22.5955 5.04095 22.6682 5.11372C22.741 5.1865 22.7819 5.2852 22.7819 5.38812V7.32842C22.7819 7.43134 22.741 7.53004 22.6682 7.60282C22.5955 7.67559 22.4968 7.71648 22.3938 7.71648ZM14.2446 6.94036H22.0058V5.77618H14.2446V6.94036Z" fill="#1F1F1F"/>
<path d="M31.3191 30.9999H25.4982C25.3953 30.9999 25.2966 30.9591 25.2238 30.8863C25.1511 30.8135 25.1102 30.7148 25.1102 30.6119V11.985C25.1102 11.8821 25.1511 11.7834 25.2238 11.7106C25.2966 11.6379 25.3953 11.597 25.4982 11.597H31.3191C31.422 11.597 31.5207 11.6379 31.5935 11.7106C31.6663 11.7834 31.7072 11.8821 31.7072 11.985V30.6119C31.7072 30.7148 31.6663 30.8135 31.5935 30.8863C31.5207 30.9591 31.422 30.9999 31.3191 30.9999ZM25.8863 30.2238H30.9311V12.3731H25.8863V30.2238Z" fill="#1F1F1F"/>
<path d="M10.752 30.9999H4.93114C4.82822 30.9999 4.72951 30.9591 4.65674 30.8863C4.58396 30.8135 4.54308 30.7148 4.54308 30.6119V11.985C4.54308 11.8821 4.58396 11.7834 4.65674 11.7106C4.72951 11.6379 4.82822 11.597 4.93114 11.597H10.752C10.8549 11.597 10.9537 11.6379 11.0264 11.7106C11.0992 11.7834 11.1401 11.8821 11.1401 11.985V30.6119C11.1401 30.7148 11.0992 30.8135 11.0264 30.8863C10.9537 30.9591 10.8549 30.9999 10.752 30.9999ZM5.31919 30.2238H10.364V12.3731H5.31919V30.2238Z" fill="#1F1F1F"/>
<path d="M22.1027 12.8582H20.4535C20.2476 12.8582 20.0502 12.7764 19.9047 12.6309C19.7591 12.4853 19.6773 12.2879 19.6773 12.0821V10.4328C19.6773 10.227 19.7591 10.0296 19.9047 9.88403C20.0502 9.73848 20.2476 9.65671 20.4535 9.65671H22.1027C22.3085 9.65671 22.506 9.73848 22.6515 9.88403C22.7971 10.0296 22.8788 10.227 22.8788 10.4328V12.0821C22.8788 12.2879 22.7971 12.4853 22.6515 12.6309C22.506 12.7764 22.3085 12.8582 22.1027 12.8582ZM20.4535 10.4328V12.0821H22.1027V10.4328H20.4535Z" fill="#1F1F1F"/>
<path d="M15.7966 12.8582H14.1474C13.9416 12.8582 13.7441 12.7764 13.5986 12.6309C13.453 12.4853 13.3713 12.2879 13.3713 12.0821V10.4328C13.3713 10.227 13.453 10.0296 13.5986 9.88403C13.7441 9.73848 13.9416 9.65671 14.1474 9.65671H15.7966C16.0025 9.65671 16.1999 9.73848 16.3454 9.88403C16.491 10.0296 16.5728 10.227 16.5728 10.4328V12.0821C16.5728 12.2879 16.491 12.4853 16.3454 12.6309C16.1999 12.7764 16.0025 12.8582 15.7966 12.8582ZM15.7966 10.4328H14.1474V12.0821H15.7966V10.4328Z" fill="#1F1F1F"/>
<path d="M22.1027 17.6603H20.4535C20.2476 17.6603 20.0502 17.5786 19.9047 17.433C19.7591 17.2875 19.6773 17.0901 19.6773 16.8842V15.235C19.6773 15.0291 19.7591 14.8317 19.9047 14.6862C20.0502 14.5406 20.2476 14.4588 20.4535 14.4588H22.1027C22.3085 14.4588 22.506 14.5406 22.6515 14.6862C22.7971 14.8317 22.8788 15.0291 22.8788 15.235V16.8842C22.8788 17.0901 22.7971 17.2875 22.6515 17.433C22.506 17.5786 22.3085 17.6603 22.1027 17.6603ZM20.4535 15.235V16.8842H22.1027V15.235H20.4535Z" fill="#1F1F1F"/>
<path d="M15.7966 17.6603H14.1474C13.9416 17.6603 13.7441 17.5786 13.5986 17.433C13.453 17.2875 13.3713 17.0901 13.3713 16.8842V15.235C13.3713 15.0291 13.453 14.8317 13.5986 14.6862C13.7441 14.5406 13.9416 14.4588 14.1474 14.4588H15.7966C16.0025 14.4588 16.1999 14.5406 16.3454 14.6862C16.491 14.8317 16.5728 15.0291 16.5728 15.235V16.8842C16.5728 17.0901 16.491 17.2875 16.3454 17.433C16.1999 17.5786 16.0025 17.6603 15.7966 17.6603ZM15.7966 15.2346H14.1474V16.8838H15.7966V15.2346Z" fill="#1F1F1F"/>
<path d="M22.1027 22.4627H20.4535C20.2476 22.4627 20.0502 22.3809 19.9047 22.2354C19.7591 22.0898 19.6773 21.8924 19.6773 21.6866V20.0373C19.6773 19.8315 19.7591 19.6341 19.9047 19.4885C20.0502 19.343 20.2476 19.2612 20.4535 19.2612H22.1027C22.3085 19.2612 22.506 19.343 22.6515 19.4885C22.7971 19.6341 22.8788 19.8315 22.8788 20.0373V21.6866C22.8788 21.8924 22.7971 22.0898 22.6515 22.2354C22.506 22.3809 22.3085 22.4627 22.1027 22.4627ZM20.4535 20.0373V21.6866H22.1027V20.0373H20.4535Z" fill="#1F1F1F"/>
<path d="M15.7966 22.4627H14.1474C13.9416 22.4627 13.7441 22.3809 13.5986 22.2354C13.453 22.0898 13.3713 21.8924 13.3713 21.6866V20.0373C13.3713 19.8315 13.453 19.6341 13.5986 19.4885C13.7441 19.343 13.9416 19.2612 14.1474 19.2612H15.7966C16.0025 19.2612 16.1999 19.343 16.3454 19.4885C16.491 19.6341 16.5728 19.8315 16.5728 20.0373V21.6866C16.5728 21.8924 16.491 22.0898 16.3454 22.2354C16.1999 22.3809 16.0025 22.4627 15.7966 22.4627ZM15.7966 20.0369H14.1474V21.6866H15.7966V20.0369Z" fill="#1F1F1F"/>
<path d="M20.5343 31H15.7162C15.6132 31 15.5145 30.9591 15.4418 30.8863C15.369 30.8136 15.3281 30.7149 15.3281 30.6119V24.403C15.3281 24.3001 15.369 24.2014 15.4418 24.1286C15.5145 24.0558 15.6132 24.0149 15.7162 24.0149H20.5343C20.6372 24.0149 20.7359 24.0558 20.8087 24.1286C20.8815 24.2014 20.9224 24.3001 20.9224 24.403V30.6119C20.9224 30.7149 20.8815 30.8136 20.8087 30.8863C20.7359 30.9591 20.6372 31 20.5343 31ZM16.1042 30.2239H20.1462V24.791H16.1042V30.2239Z" fill="#1F1F1F"/>
<path d="M29.0149 17.806H27.8026C27.5967 17.806 27.3993 17.7242 27.2538 17.5787C27.1082 17.4331 27.0265 17.2357 27.0265 17.0299V15.8172C27.0265 15.6113 27.1082 15.4139 27.2538 15.2684C27.3993 15.1228 27.5967 15.041 27.8026 15.041H29.0149C29.2207 15.041 29.4181 15.1228 29.5637 15.2684C29.7092 15.4139 29.791 15.6113 29.791 15.8172V17.0299C29.791 17.2357 29.7092 17.4331 29.5637 17.5787C29.4181 17.7242 29.2207 17.806 29.0149 17.806ZM27.8026 15.8172V17.0299H29.0149V15.8172H27.8026Z" fill="#1F1F1F"/>
<path d="M29.0149 22.6807H27.8026C27.5967 22.6807 27.3993 22.599 27.2538 22.4534C27.1082 22.3079 27.0265 22.1105 27.0265 21.9046V20.6923C27.0265 20.4865 27.1082 20.2891 27.2538 20.1435C27.3993 19.998 27.5967 19.9162 27.8026 19.9162H29.0149C29.2207 19.9162 29.4181 19.998 29.5637 20.1435C29.7092 20.2891 29.791 20.4865 29.791 20.6923V21.9046C29.791 22.1105 29.7092 22.3079 29.5637 22.4534C29.4181 22.599 29.2207 22.6807 29.0149 22.6807ZM27.8026 20.6923V21.9046H29.0149V20.6923H27.8026Z" fill="#1F1F1F"/>
<path d="M29.0149 27.5559H27.8026C27.5967 27.5559 27.3993 27.4741 27.2538 27.3286C27.1082 27.183 27.0265 26.9856 27.0265 26.7798V25.5671C27.0265 25.3613 27.1082 25.1639 27.2538 25.0183C27.3993 24.8728 27.5967 24.791 27.8026 24.791H29.0149C29.2207 24.791 29.4181 24.8728 29.5637 25.0183C29.7092 25.1639 29.791 25.3613 29.791 25.5671V26.7798C29.791 26.9856 29.7092 27.183 29.5637 27.3286C29.4181 27.4741 29.2207 27.5559 29.0149 27.5559ZM27.8026 25.5671V26.7798H29.0149V25.5671H27.8026Z" fill="#1F1F1F"/>
<path d="M8.4478 17.806H7.2355C7.02966 17.806 6.83225 17.7242 6.6867 17.5787C6.54115 17.4331 6.45938 17.2357 6.45938 17.0299V15.8172C6.45938 15.6113 6.54115 15.4139 6.6867 15.2684C6.83225 15.1228 7.02966 15.041 7.2355 15.041H8.4478C8.65364 15.041 8.85105 15.1228 8.9966 15.2684C9.14215 15.4139 9.22392 15.6113 9.22392 15.8172V17.0299C9.22392 17.2357 9.14215 17.4331 8.9966 17.5787C8.85105 17.7242 8.65364 17.806 8.4478 17.806ZM7.2355 15.8172V17.0299H8.4478V15.8172H7.2355Z" fill="#1F1F1F"/>
<path d="M8.4478 22.6807H7.2355C7.02966 22.6807 6.83225 22.599 6.6867 22.4534C6.54115 22.3079 6.45938 22.1105 6.45938 21.9046V20.6923C6.45938 20.4865 6.54115 20.2891 6.6867 20.1435C6.83225 19.998 7.02966 19.9162 7.2355 19.9162H8.4478C8.65364 19.9162 8.85105 19.998 8.9966 20.1435C9.14215 20.2891 9.22392 20.4865 9.22392 20.6923V21.9046C9.22392 22.1105 9.14215 22.3079 8.9966 22.4534C8.85105 22.599 8.65364 22.6807 8.4478 22.6807ZM7.2355 20.6923V21.9046H8.4478V20.6923H7.2355Z" fill="#1F1F1F"/>
<path d="M8.4478 27.5559H7.2355C7.02966 27.5559 6.83225 27.4741 6.6867 27.3286C6.54115 27.183 6.45938 26.9856 6.45938 26.7798V25.5671C6.45938 25.3613 6.54115 25.1639 6.6867 25.0183C6.83225 24.8728 7.02966 24.791 7.2355 24.791H8.4478C8.65364 24.791 8.85105 24.8728 8.9966 25.0183C9.14215 25.1639 9.22392 25.3613 9.22392 25.5671V26.7798C9.22392 26.9856 9.14215 27.183 8.9966 27.3286C8.85105 27.4741 8.65364 27.5559 8.4478 27.5559ZM7.2355 25.5671V26.7798H8.4478V25.5671H7.2355Z" fill="#1F1F1F"/>
</svg>
