<svg width="37" height="36" viewBox="0 0 37 36" fill="none" xmlns="http://www.w3.org/2000/svg">
<g clip-path="url(#clip0_1_466)">
<path d="M21.2837 22.7868C21.2837 26.0983 23.9682 28.7828 27.2797 28.7828C30.5909 28.7828 33.2754 26.0983 33.2754 22.7868C33.2754 19.4755 30.5909 16.791 27.2797 16.791C23.9697 16.7947 21.2874 19.477 21.2837 22.7868ZM27.2797 17.9901C29.9289 17.9901 32.0764 20.1376 32.0764 22.7868C32.0764 25.436 29.9289 27.5835 27.2797 27.5835C24.6305 27.5835 22.483 25.436 22.483 22.7868C22.4859 20.1391 24.6317 17.993 27.2797 17.9901Z" fill="#1F1F1F"/>
<path d="M23.8536 34.7788H30.7064V35.9778H23.8536V34.7788Z" fill="#1F1F1F"/>
<path d="M21.2837 32.3802H33.2757V33.5795H21.2837V32.3802Z" fill="#1F1F1F"/>
<path d="M8.09272 32.3802H9.29201V33.5795H8.09272V32.3802Z" fill="#1F1F1F"/>
<path d="M4.49531 33.5795H5.69436V34.7788H4.49531V33.5795Z" fill="#1F1F1F"/>
<path d="M8.15273 29.0063C11.2835 23.5536 13.2479 17.51 13.9213 11.2585L19.4976 16.8017C19.6091 16.9127 19.7598 16.9754 19.9173 16.9761C19.9497 16.9764 19.9824 16.9737 20.0143 16.9684C20.2044 16.9374 20.368 16.8169 20.4538 16.6447C21.5842 14.3886 21.1415 11.662 19.3554 9.87953L18.8651 9.38898H23.0825C23.4136 9.38922 23.6823 9.12096 23.6823 8.78981C23.6826 8.72499 23.6719 8.66064 23.6516 8.59945C22.8553 6.20473 20.6144 4.58987 18.0908 4.59229H17.3114L20.3058 1.58051C20.5395 1.34588 20.5385 0.96635 20.3039 0.732684C20.2584 0.687451 20.2061 0.649716 20.1488 0.621173C17.8917 -0.510391 15.1637 -0.0679733 13.38 1.71911L12.8074 2.29167C12.6207 2.47962 12.4473 2.6799 12.2876 2.89131C12.1299 2.6799 11.9577 2.47962 11.7724 2.29167L11.1998 1.71911C9.41757 -0.0667638 6.69098 -0.509181 4.43536 0.621173C4.13904 0.76921 4.01882 1.12938 4.16686 1.42546C4.1954 1.48279 4.23314 1.53503 4.27837 1.58051L7.27612 4.59229H6.48901C3.96536 4.58987 1.72425 6.20473 0.928187 8.59945C0.823206 8.91342 0.992771 9.25303 1.30699 9.35801C1.36819 9.37857 1.43253 9.38898 1.49735 9.38898H5.7106L5.22029 9.87953C3.43417 11.662 2.99151 14.3886 4.12162 16.6447C4.20774 16.8169 4.37126 16.9374 4.56114 16.9684C4.59331 16.9737 4.62572 16.9764 4.65838 16.9761C4.81682 16.9761 4.96873 16.9135 5.08096 16.8017L10.2736 11.6398C9.63068 17.3854 7.46673 22.8555 4.00479 27.4858C3.19881 27.2741 2.38171 27.1075 1.55734 26.987L1.18266 26.9493L1.06268 28.143L1.41221 28.1771C2.01186 28.263 2.60763 28.3841 3.20026 28.5213C3.08029 28.6718 2.96031 28.8246 2.83622 28.9729L3.75589 29.7421C8.36366 24.2638 11.1106 17.4626 11.5999 10.3207L12.29 9.63498L12.8067 10.1488C12.1763 17.7864 9.55473 25.1256 5.20336 31.4341L6.18543 32.1214C6.65688 31.4484 7.10655 30.7501 7.54244 30.0384C10.3472 31.38 12.8236 33.3202 14.7975 35.7224L15.7249 34.9626C14.5577 33.5437 13.2206 32.2735 11.7431 31.1811H36.8731V29.9818H9.96667C9.37887 29.627 8.77221 29.3055 8.15273 29.0063ZM19.6972 15.308L13.3621 9.00945C14.9825 8.52567 16.7377 8.9647 17.9394 10.1546L18.5119 10.7274C19.7115 11.9247 20.1653 13.6791 19.6972 15.308ZM22.1676 8.18992H17.2031C16.0468 7.63962 14.7423 7.48385 13.4891 7.74678C14.3616 6.51991 15.7737 5.79134 17.2793 5.79158H18.0886C19.7835 5.78892 21.3459 6.70762 22.1676 8.18992ZM13.6533 3.13949L14.2261 2.56694C15.4244 1.36716 17.1796 0.913134 18.8092 1.38143L15.2549 4.95682C14.1013 5.38133 13.111 6.15877 12.4243 7.17834C12.1454 5.71152 12.6054 4.20115 13.6553 3.13949H13.6533ZM10.3503 2.56694L10.9229 3.13949C11.1899 3.4121 11.4216 3.71737 11.6125 4.04779C11.3408 4.67937 11.1858 5.35449 11.1543 6.04097C10.6161 5.57073 9.99618 5.20355 9.32566 4.95682L5.77059 1.38143C7.39972 0.913376 9.1544 1.3674 10.352 2.56694H10.3503ZM6.48707 5.79158H7.29668C8.80317 5.79013 10.2173 6.51846 11.0907 7.74606C9.83822 7.48409 8.53419 7.63987 7.37868 8.18992H2.41218C3.23364 6.70835 4.79481 5.78989 6.48901 5.79158H6.48707ZM4.88261 15.308C4.41455 13.6791 4.86858 11.9247 6.06812 10.7274L6.64067 10.1546C7.50325 9.29415 8.67304 8.81255 9.89168 8.81642C10.3414 8.81666 10.7886 8.88076 11.2204 9.00703L4.88261 15.308Z" fill="#1F1F1F"/>
</g>
<defs>
<clipPath id="clip0_1_466">
<rect width="36" height="36" fill="white" transform="translate(0.875)"/>
</clipPath>
</defs>
</svg>
